<svg width="277" height="271" viewBox="0 0 277 271" fill="none" xmlns="http://www.w3.org/2000/svg">
<path d="M40.5505 186.003C47.9326 167.732 68.7289 158.904 87.0002 166.286L365.844 278.947L339.111 345.113L60.2672 232.453C41.9959 225.071 33.1684 204.274 40.5505 186.003Z" fill="#59B17A" fill-opacity="0.08"/>
<path d="M139.101 33.0832C146.483 14.8119 167.28 5.98438 185.551 13.3665L464.395 126.027L437.662 192.193L158.818 79.5329C140.547 72.1508 131.719 51.3546 139.101 33.0832Z" fill="#59B17A" fill-opacity="0.08"/>
<path d="M13.3669 78.9592C20.749 60.6878 41.5453 51.8604 59.8166 59.2425L338.661 171.903L311.928 238.069L33.0836 125.409C14.8123 118.027 5.98481 97.2305 13.3669 78.9592Z" fill="#59B17A" fill-opacity="0.08"/>
</svg>
