<svg width="20" height="20" viewBox="0 0 20 20" fill="none" xmlns="http://www.w3.org/2000/svg">
<g clip-path="url(#clip0_426_853)">
<path d="M12.8583 10.7143C16.4087 10.7143 19.2868 9.4351 19.2868 7.85714C19.2868 6.27919 16.4087 5 12.8583 5C9.30786 5 6.42969 6.27919 6.42969 7.85714C6.42969 9.4351 9.30786 10.7143 12.8583 10.7143Z" stroke="#1D1E21" stroke-width="1.5" stroke-linecap="round" stroke-linejoin="round"/>
<path d="M6.42969 7.85742V16.4289C6.42969 18.0003 9.28683 19.286 12.8583 19.286C16.4297 19.286 19.2868 18.0003 19.2868 16.4289V7.85742" stroke="#1D1E21" stroke-width="1.5" stroke-linecap="round" stroke-linejoin="round"/>
<path d="M19.2863 12.1433C19.2863 13.7147 16.4291 15.0004 12.8577 15.0004C9.28627 15.0004 6.42913 13.7147 6.42913 12.1433M12.7148 2.14326C11.0455 1.11308 9.10246 0.614852 7.14342 0.714686C3.58627 0.714686 0.714844 2.0004 0.714844 3.57183C0.714844 4.41469 1.54342 5.17183 2.8577 5.71469" stroke="#1D1E21" stroke-width="1.5" stroke-linecap="round" stroke-linejoin="round"/>
<path d="M2.8577 14.2866C1.54342 13.7437 0.714844 12.9866 0.714844 12.1437V3.57227" stroke="#1D1E21" stroke-width="1.5" stroke-linecap="round" stroke-linejoin="round"/>
<path d="M2.8577 10.0003C1.54342 9.45742 0.714844 8.70028 0.714844 7.85742" stroke="#1D1E21" stroke-width="1.5" stroke-linecap="round" stroke-linejoin="round"/>
</g>
<defs>
<clipPath id="clip0_426_853">
<rect width="20" height="20" fill="white"/>
</clipPath>
</defs>
</svg>
