<svg width="18" height="18" viewBox="0 0 18 18" fill="none" xmlns="http://www.w3.org/2000/svg">
<g clip-path="url(#clip0_449_6868)">
<path d="M11.5709 9.64286C14.7662 9.64286 17.3566 8.49159 17.3566 7.07143C17.3566 5.65127 14.7662 4.5 11.5709 4.5C8.37551 4.5 5.78516 5.65127 5.78516 7.07143C5.78516 8.49159 8.37551 9.64286 11.5709 9.64286Z" stroke="#1D1E21" stroke-width="1.5" stroke-linecap="round" stroke-linejoin="round"/>
<path d="M5.78516 7.07129V14.7856C5.78516 16.1999 8.35658 17.357 11.5709 17.357C14.7852 17.357 17.3566 16.1999 17.3566 14.7856V7.07129" stroke="#1D1E21" stroke-width="1.5" stroke-linecap="round" stroke-linejoin="round"/>
<path d="M17.3569 10.9288C17.3569 12.3431 14.7854 13.5003 11.5711 13.5003C8.35686 13.5003 5.78544 12.3431 5.78544 10.9288M11.4426 1.92883C9.94021 1.00167 8.19143 0.553269 6.42829 0.64312C3.22686 0.64312 0.642578 1.80026 0.642578 3.21455C0.642578 3.97312 1.38829 4.65455 2.57115 5.14312" stroke="#1D1E21" stroke-width="1.5" stroke-linecap="round" stroke-linejoin="round"/>
<path d="M2.57115 12.8577C1.38829 12.3691 0.642578 11.6877 0.642578 10.9291V3.21484" stroke="#1D1E21" stroke-width="1.5" stroke-linecap="round" stroke-linejoin="round"/>
<path d="M2.57115 8.99986C1.38829 8.51129 0.642578 7.82986 0.642578 7.07129" stroke="#1D1E21" stroke-width="1.5" stroke-linecap="round" stroke-linejoin="round"/>
</g>
<defs>
<clipPath id="clip0_449_6868">
<rect width="18" height="18" fill="white"/>
</clipPath>
</defs>
</svg>
