<svg width="20" height="20" viewBox="0 0 20 20" fill="none" xmlns="http://www.w3.org/2000/svg">
<path d="M17.5 16.667C17.5 15.2153 16.1083 13.9812 14.1667 13.5228M12.5 16.667C12.5 14.8253 10.2617 13.3337 7.5 13.3337C4.73833 13.3337 2.5 14.8253 2.5 16.667M12.5 10.8337C13.3841 10.8337 14.2319 10.4825 14.857 9.85735C15.4821 9.23223 15.8333 8.38438 15.8333 7.50033C15.8333 6.61627 15.4821 5.76842 14.857 5.1433C14.2319 4.51818 13.3841 4.16699 12.5 4.16699M7.5 10.8337C6.61594 10.8337 5.7681 10.4825 5.14298 9.85735C4.51786 9.23223 4.16667 8.38438 4.16667 7.50033C4.16667 6.61627 4.51786 5.76842 5.14298 5.1433C5.7681 4.51818 6.61594 4.16699 7.5 4.16699C8.38405 4.16699 9.2319 4.51818 9.85702 5.1433C10.4821 5.76842 10.8333 6.61627 10.8333 7.50033C10.8333 8.38438 10.4821 9.23223 9.85702 9.85735C9.2319 10.4825 8.38405 10.8337 7.5 10.8337Z" stroke="#1D1E21" stroke-width="1.5" stroke-linecap="round" stroke-linejoin="round"/>
</svg>
